<?xml version="1.0" encoding="UTF-8" standalone="no"?>
<!DOCTYPE svg PUBLIC "-//W3C//DTD SVG 1.1//EN"
 "http://www.w3.org/Graphics/SVG/1.1/DTD/svg11.dtd">
<!-- Generated by graphviz version 2.30.1 (20180420.1509)
 -->
<!-- Title: G Pages: 1 -->
<svg width="2003pt" height="404pt"
 viewBox="0.00 0.00 2003.00 404.00" xmlns="http://www.w3.org/2000/svg" xmlns:xlink="http://www.w3.org/1999/xlink">
<g id="graph0" class="graph" transform="scale(1 1) rotate(0) translate(4 400)">
<title>G</title>
<polygon fill="white" stroke="white" points="-4,5 -4,-400 2000,-400 2000,5 -4,5"/>
<!-- plotAndSave -->
<g id="node1" class="node"><title>plotAndSave</title>
<ellipse fill="none" stroke="black" cx="733" cy="-90" rx="55.3436" ry="18"/>
<text text-anchor="middle" x="733" y="-86.3" font-family="Times,serif" font-size="14.00">plotAndSave</text>
</g>
<!-- doCalibration -->
<g id="node2" class="node"><title>doCalibration</title>
<ellipse fill="none" stroke="black" cx="1540" cy="-18" rx="59.2173" ry="18"/>
<text text-anchor="middle" x="1540" y="-14.3" font-family="Times,serif" font-size="14.00">doCalibration</text>
</g>
<!-- plotAndSave&#45;&gt;doCalibration -->
<g id="edge1" class="edge"><title>plotAndSave&#45;&gt;doCalibration</title>
<path fill="none" stroke="black" d="M785.95,-84.4071C927.946,-72.0902 1317.02,-38.3418 1473.51,-24.7673"/>
<polygon fill="black" stroke="black" points="1474.26,-28.2152 1483.92,-23.8641 1473.66,-21.2414 1474.26,-28.2152"/>
</g>
<!-- fitM2k -->
<g id="node3" class="node"><title>fitM2k</title>
<ellipse fill="none" stroke="black" cx="1522" cy="-90" rx="35.1455" ry="18"/>
<text text-anchor="middle" x="1522" y="-86.3" font-family="Times,serif" font-size="14.00">fitM2k</text>
</g>
<!-- fitM2k&#45;&gt;doCalibration -->
<g id="edge2" class="edge"><title>fitM2k&#45;&gt;doCalibration</title>
<path fill="none" stroke="black" d="M1526.36,-72.055C1528.36,-64.2609 1530.79,-54.8219 1533.04,-46.0789"/>
<polygon fill="black" stroke="black" points="1536.46,-46.8319 1535.56,-36.2753 1529.68,-45.0886 1536.46,-46.8319"/>
</g>
<!-- getFreq -->
<g id="node4" class="node"><title>getFreq</title>
<ellipse fill="none" stroke="black" cx="1590" cy="-162" rx="37.0701" ry="18"/>
<text text-anchor="middle" x="1590" y="-158.3" font-family="Times,serif" font-size="14.00">getFreq</text>
</g>
<!-- getFreq&#45;&gt;doCalibration -->
<g id="edge3" class="edge"><title>getFreq&#45;&gt;doCalibration</title>
<path fill="none" stroke="black" d="M1586.43,-143.964C1582.4,-125.821 1575.18,-96.4157 1566,-72 1562.59,-62.9392 1558.16,-53.3496 1553.92,-44.8549"/>
<polygon fill="black" stroke="black" points="1556.96,-43.1166 1549.29,-35.8159 1550.74,-46.3111 1556.96,-43.1166"/>
</g>
<!-- calcSk -->
<g id="node9" class="node"><title>calcSk</title>
<ellipse fill="none" stroke="black" cx="1685" cy="-90" rx="34.1708" ry="18"/>
<text text-anchor="middle" x="1685" y="-86.3" font-family="Times,serif" font-size="14.00">calcSk</text>
</g>
<!-- getFreq&#45;&gt;calcSk -->
<g id="edge7" class="edge"><title>getFreq&#45;&gt;calcSk</title>
<path fill="none" stroke="black" d="M1609.68,-146.496C1623.62,-136.224 1642.5,-122.316 1657.87,-110.993"/>
<polygon fill="black" stroke="black" points="1660.02,-113.758 1665.99,-105.008 1655.86,-108.122 1660.02,-113.758"/>
</g>
<!-- getFreq&#45;&gt;fitM2k -->
<g id="edge28" class="edge"><title>getFreq&#45;&gt;fitM2k</title>
<path fill="none" stroke="black" d="M1574.91,-145.465C1565.84,-136.13 1554.14,-124.087 1544.05,-113.7"/>
<polygon fill="black" stroke="black" points="1546.53,-111.226 1537.05,-106.492 1541.51,-116.103 1546.53,-111.226"/>
</g>
<!-- doAnalysis -->
<g id="node25" class="node"><title>doAnalysis</title>
<ellipse fill="none" stroke="black" cx="1685" cy="-18" rx="50.0684" ry="18"/>
<text text-anchor="middle" x="1685" y="-14.3" font-family="Times,serif" font-size="14.00">doAnalysis</text>
</g>
<!-- getFreq&#45;&gt;doAnalysis -->
<g id="edge31" class="edge"><title>getFreq&#45;&gt;doAnalysis</title>
<path fill="none" stroke="black" d="M1598.67,-144.463C1608.46,-126.236 1625.2,-96.2832 1642,-72 1648.64,-62.4002 1656.54,-52.3401 1663.74,-43.5955"/>
<polygon fill="black" stroke="black" points="1666.64,-45.5879 1670.37,-35.6727 1661.27,-41.0954 1666.64,-45.5879"/>
</g>
<!-- calcNPS -->
<g id="node5" class="node"><title>calcNPS</title>
<ellipse fill="none" stroke="black" cx="1782" cy="-90" rx="40.4202" ry="18"/>
<text text-anchor="middle" x="1782" y="-86.3" font-family="Times,serif" font-size="14.00">calcNPS</text>
</g>
<!-- calcNPS&#45;&gt;doCalibration -->
<g id="edge4" class="edge"><title>calcNPS&#45;&gt;doCalibration</title>
<path fill="none" stroke="black" d="M1750.07,-78.7721C1742.83,-76.5009 1735.16,-74.1352 1728,-72 1682.36,-58.3858 1630.21,-43.7572 1592.43,-33.3251"/>
<polygon fill="black" stroke="black" points="1593.24,-29.9157 1582.67,-30.6326 1591.38,-36.6641 1593.24,-29.9157"/>
</g>
<!-- calcNPS&#45;&gt;doAnalysis -->
<g id="edge32" class="edge"><title>calcNPS&#45;&gt;doAnalysis</title>
<path fill="none" stroke="black" d="M1761.43,-74.1548C1747.85,-64.3587 1729.85,-51.3672 1714.73,-40.4535"/>
<polygon fill="black" stroke="black" points="1716.37,-37.3215 1706.21,-34.3077 1712.27,-42.9978 1716.37,-37.3215"/>
</g>
<!-- pupilFunc -->
<g id="node6" class="node"><title>pupilFunc</title>
<ellipse fill="none" stroke="black" cx="815" cy="-234" rx="46.2191" ry="18"/>
<text text-anchor="middle" x="815" y="-230.3" font-family="Times,serif" font-size="14.00">pupilFunc</text>
</g>
<!-- fplot_PSF -->
<g id="node7" class="node"><title>fplot_PSF</title>
<ellipse fill="none" stroke="black" cx="668" cy="-162" rx="46.2191" ry="18"/>
<text text-anchor="middle" x="668" y="-158.3" font-family="Times,serif" font-size="14.00">fplot_PSF</text>
</g>
<!-- pupilFunc&#45;&gt;fplot_PSF -->
<g id="edge5" class="edge"><title>pupilFunc&#45;&gt;fplot_PSF</title>
<path fill="none" stroke="black" d="M787.004,-219.669C763.958,-208.694 731.072,-193.034 705.708,-180.956"/>
<polygon fill="black" stroke="black" points="706.925,-177.659 696.392,-176.52 703.916,-183.979 706.925,-177.659"/>
</g>
<!-- fplot_PSF_LineCut -->
<g id="node12" class="node"><title>fplot_PSF_LineCut</title>
<ellipse fill="none" stroke="black" cx="962" cy="-162" rx="78.9404" ry="18"/>
<text text-anchor="middle" x="962" y="-158.3" font-family="Times,serif" font-size="14.00">fplot_PSF_LineCut</text>
</g>
<!-- pupilFunc&#45;&gt;fplot_PSF_LineCut -->
<g id="edge10" class="edge"><title>pupilFunc&#45;&gt;fplot_PSF_LineCut</title>
<path fill="none" stroke="black" d="M842.996,-219.669C864.86,-209.257 895.581,-194.628 920.333,-182.842"/>
<polygon fill="black" stroke="black" points="921.972,-185.938 929.496,-178.478 918.962,-179.618 921.972,-185.938"/>
</g>
<!-- fplot_PSF_abs2_LineCut -->
<g id="node13" class="node"><title>fplot_PSF_abs2_LineCut</title>
<ellipse fill="none" stroke="black" cx="100" cy="-162" rx="100.137" ry="18"/>
<text text-anchor="middle" x="100" y="-158.3" font-family="Times,serif" font-size="14.00">fplot_PSF_abs2_LineCut</text>
</g>
<!-- pupilFunc&#45;&gt;fplot_PSF_abs2_LineCut -->
<g id="edge11" class="edge"><title>pupilFunc&#45;&gt;fplot_PSF_abs2_LineCut</title>
<path fill="none" stroke="black" d="M769.659,-230.085C668.717,-223.366 417.89,-205.395 209,-180 199.925,-178.897 190.444,-177.614 181.024,-176.257"/>
<polygon fill="black" stroke="black" points="181.253,-172.753 170.85,-174.76 180.234,-179.678 181.253,-172.753"/>
</g>
<!-- fplot_PSF_abs2 -->
<g id="node18" class="node"><title>fplot_PSF_abs2</title>
<ellipse fill="none" stroke="black" cx="1126" cy="-162" rx="66.4165" ry="18"/>
<text text-anchor="middle" x="1126" y="-158.3" font-family="Times,serif" font-size="14.00">fplot_PSF_abs2</text>
</g>
<!-- pupilFunc&#45;&gt;fplot_PSF_abs2 -->
<g id="edge15" class="edge"><title>pupilFunc&#45;&gt;fplot_PSF_abs2</title>
<path fill="none" stroke="black" d="M854.073,-224.205C907.544,-212.17 1003.99,-190.463 1066.48,-176.398"/>
<polygon fill="black" stroke="black" points="1067.6,-179.733 1076.58,-174.123 1066.06,-172.904 1067.6,-179.733"/>
</g>
<!-- fplot_pupil -->
<g id="node19" class="node"><title>fplot_pupil</title>
<ellipse fill="none" stroke="black" cx="554" cy="-162" rx="50.0684" ry="18"/>
<text text-anchor="middle" x="554" y="-158.3" font-family="Times,serif" font-size="14.00">fplot_pupil</text>
</g>
<!-- pupilFunc&#45;&gt;fplot_pupil -->
<g id="edge16" class="edge"><title>pupilFunc&#45;&gt;fplot_pupil</title>
<path fill="none" stroke="black" d="M777.326,-223.403C736.699,-212.986 670.154,-195.73 613,-180 609.234,-178.964 605.338,-177.876 601.425,-176.772"/>
<polygon fill="black" stroke="black" points="602.307,-173.384 591.732,-174.017 600.394,-180.118 602.307,-173.384"/>
</g>
<!-- M2kFuncAnal -->
<g id="node20" class="node"><title>M2kFuncAnal</title>
<ellipse fill="none" stroke="black" cx="1473" cy="-162" rx="62.0922" ry="18"/>
<text text-anchor="middle" x="1473" y="-158.3" font-family="Times,serif" font-size="14.00">M2kFuncAnal</text>
</g>
<!-- pupilFunc&#45;&gt;M2kFuncAnal -->
<g id="edge17" class="edge"><title>pupilFunc&#45;&gt;M2kFuncAnal</title>
<path fill="none" stroke="black" d="M860.491,-231.083C959.379,-226.435 1201.1,-212.471 1401,-180 1406.69,-179.077 1412.59,-177.955 1418.46,-176.733"/>
<polygon fill="black" stroke="black" points="1419.23,-180.146 1428.26,-174.599 1417.74,-173.306 1419.23,-180.146"/>
</g>
<!-- fplot_PSF&#45;&gt;plotAndSave -->
<g id="edge25" class="edge"><title>fplot_PSF&#45;&gt;plotAndSave</title>
<path fill="none" stroke="black" d="M683.076,-144.765C691.243,-135.969 701.495,-124.928 710.581,-115.144"/>
<polygon fill="black" stroke="black" points="713.315,-117.343 717.555,-107.633 708.185,-112.58 713.315,-117.343"/>
</g>
<!-- azmAvg -->
<g id="node8" class="node"><title>azmAvg</title>
<ellipse fill="none" stroke="black" cx="1685" cy="-162" rx="39.4691" ry="18"/>
<text text-anchor="middle" x="1685" y="-158.3" font-family="Times,serif" font-size="14.00">azmAvg</text>
</g>
<!-- azmAvg&#45;&gt;calcSk -->
<g id="edge6" class="edge"><title>azmAvg&#45;&gt;calcSk</title>
<path fill="none" stroke="black" d="M1685,-143.697C1685,-135.983 1685,-126.712 1685,-118.112"/>
<polygon fill="black" stroke="black" points="1688.5,-118.104 1685,-108.104 1681.5,-118.104 1688.5,-118.104"/>
</g>
<!-- calcSk&#45;&gt;doAnalysis -->
<g id="edge30" class="edge"><title>calcSk&#45;&gt;doAnalysis</title>
<path fill="none" stroke="black" d="M1685,-71.6966C1685,-63.9827 1685,-54.7125 1685,-46.1124"/>
<polygon fill="black" stroke="black" points="1688.5,-46.1043 1685,-36.1043 1681.5,-46.1044 1688.5,-46.1043"/>
</g>
<!-- readInImages -->
<g id="node10" class="node"><title>readInImages</title>
<ellipse fill="none" stroke="black" cx="1920" cy="-162" rx="58.2422" ry="18"/>
<text text-anchor="middle" x="1920" y="-158.3" font-family="Times,serif" font-size="14.00">readInImages</text>
</g>
<!-- readInImages&#45;&gt;calcNPS -->
<g id="edge8" class="edge"><title>readInImages&#45;&gt;calcNPS</title>
<path fill="none" stroke="black" d="M1891.07,-146.326C1869.4,-135.332 1839.65,-120.244 1816.7,-108.601"/>
<polygon fill="black" stroke="black" points="1818.14,-105.407 1807.64,-104.005 1814.97,-111.65 1818.14,-105.407"/>
</g>
<!-- showExampleImg -->
<g id="node15" class="node"><title>showExampleImg</title>
<ellipse fill="none" stroke="black" cx="1920" cy="-90" rx="75.0904" ry="18"/>
<text text-anchor="middle" x="1920" y="-86.3" font-family="Times,serif" font-size="14.00">showExampleImg</text>
</g>
<!-- readInImages&#45;&gt;showExampleImg -->
<g id="edge13" class="edge"><title>readInImages&#45;&gt;showExampleImg</title>
<path fill="none" stroke="black" d="M1920,-143.697C1920,-135.983 1920,-126.712 1920,-118.112"/>
<polygon fill="black" stroke="black" points="1923.5,-118.104 1920,-108.104 1916.5,-118.104 1923.5,-118.104"/>
</g>
<!-- __calcNPS -->
<g id="node11" class="node"><title>__calcNPS</title>
<ellipse fill="none" stroke="black" cx="1793" cy="-162" rx="50.0684" ry="18"/>
<text text-anchor="middle" x="1793" y="-158.3" font-family="Times,serif" font-size="14.00">__calcNPS</text>
</g>
<!-- __calcNPS&#45;&gt;calcNPS -->
<g id="edge9" class="edge"><title>__calcNPS&#45;&gt;calcNPS</title>
<path fill="none" stroke="black" d="M1790.28,-143.697C1789.07,-135.983 1787.61,-126.712 1786.26,-118.112"/>
<polygon fill="black" stroke="black" points="1789.7,-117.44 1784.69,-108.104 1782.78,-118.526 1789.7,-117.44"/>
</g>
<!-- fplot_PSF_LineCut&#45;&gt;plotAndSave -->
<g id="edge23" class="edge"><title>fplot_PSF_LineCut&#45;&gt;plotAndSave</title>
<path fill="none" stroke="black" d="M916.757,-147.17C877.824,-135.269 821.779,-118.138 781.837,-105.928"/>
<polygon fill="black" stroke="black" points="782.636,-102.513 772.049,-102.937 780.59,-109.207 782.636,-102.513"/>
</g>
<!-- fplot_PSF_abs2_LineCut&#45;&gt;plotAndSave -->
<g id="edge24" class="edge"><title>fplot_PSF_abs2_LineCut&#45;&gt;plotAndSave</title>
<path fill="none" stroke="black" d="M171.16,-149.336C183.75,-147.434 196.747,-145.574 209,-144 374.986,-122.678 571.466,-104.754 669.997,-96.2671"/>
<polygon fill="black" stroke="black" points="670.42,-99.7438 680.085,-95.4019 669.822,-92.7694 670.42,-99.7438"/>
</g>
<!-- calcResolution -->
<g id="node14" class="node"><title>calcResolution</title>
<ellipse fill="none" stroke="black" cx="100" cy="-234" rx="63.0666" ry="18"/>
<text text-anchor="middle" x="100" y="-230.3" font-family="Times,serif" font-size="14.00">calcResolution</text>
</g>
<!-- calcResolution&#45;&gt;fplot_PSF_abs2_LineCut -->
<g id="edge12" class="edge"><title>calcResolution&#45;&gt;fplot_PSF_abs2_LineCut</title>
<path fill="none" stroke="black" d="M100,-215.697C100,-207.983 100,-198.712 100,-190.112"/>
<polygon fill="black" stroke="black" points="103.5,-190.104 100,-180.104 96.5001,-190.104 103.5,-190.104"/>
</g>
<!-- lin_interp -->
<g id="node16" class="node"><title>lin_interp</title>
<ellipse fill="none" stroke="black" cx="100" cy="-378" rx="44.271" ry="18"/>
<text text-anchor="middle" x="100" y="-374.3" font-family="Times,serif" font-size="14.00">lin_interp</text>
</g>
<!-- uPercent_max_x -->
<g id="node17" class="node"><title>uPercent_max_x</title>
<ellipse fill="none" stroke="black" cx="100" cy="-306" rx="70.2909" ry="18"/>
<text text-anchor="middle" x="100" y="-302.3" font-family="Times,serif" font-size="14.00">uPercent_max_x</text>
</g>
<!-- lin_interp&#45;&gt;uPercent_max_x -->
<g id="edge14" class="edge"><title>lin_interp&#45;&gt;uPercent_max_x</title>
<path fill="none" stroke="black" d="M100,-359.697C100,-351.983 100,-342.712 100,-334.112"/>
<polygon fill="black" stroke="black" points="103.5,-334.104 100,-324.104 96.5001,-334.104 103.5,-334.104"/>
</g>
<!-- uPercent_max_x&#45;&gt;calcResolution -->
<g id="edge27" class="edge"><title>uPercent_max_x&#45;&gt;calcResolution</title>
<path fill="none" stroke="black" d="M100,-287.697C100,-279.983 100,-270.712 100,-262.112"/>
<polygon fill="black" stroke="black" points="103.5,-262.104 100,-252.104 96.5001,-262.104 103.5,-262.104"/>
</g>
<!-- fplot_PSF_abs2&#45;&gt;plotAndSave -->
<g id="edge20" class="edge"><title>fplot_PSF_abs2&#45;&gt;plotAndSave</title>
<path fill="none" stroke="black" d="M1077.02,-149.634C1068.05,-147.669 1058.76,-145.71 1050,-144 960.643,-126.55 856.415,-109.813 792.573,-99.9697"/>
<polygon fill="black" stroke="black" points="792.711,-96.45 782.296,-98.3909 791.648,-103.369 792.711,-96.45"/>
</g>
<!-- fplot_pupil&#45;&gt;plotAndSave -->
<g id="edge21" class="edge"><title>fplot_pupil&#45;&gt;plotAndSave</title>
<path fill="none" stroke="black" d="M586.831,-148.161C615.644,-136.894 657.766,-120.421 689.4,-108.05"/>
<polygon fill="black" stroke="black" points="690.816,-111.255 698.854,-104.353 688.266,-104.736 690.816,-111.255"/>
</g>
<!-- M2kFuncAnal&#45;&gt;fitM2k -->
<g id="edge29" class="edge"><title>M2kFuncAnal&#45;&gt;fitM2k</title>
<path fill="none" stroke="black" d="M1484.86,-144.055C1490.85,-135.505 1498.22,-124.975 1504.81,-115.556"/>
<polygon fill="black" stroke="black" points="1507.72,-117.506 1510.59,-107.307 1501.98,-113.492 1507.72,-117.506"/>
</g>
<!-- fplot_NPS_Exp -->
<g id="node21" class="node"><title>fplot_NPS_Exp</title>
<ellipse fill="none" stroke="black" cx="798" cy="-162" rx="65.9423" ry="18"/>
<text text-anchor="middle" x="798" y="-158.3" font-family="Times,serif" font-size="14.00">fplot_NPS_Exp</text>
</g>
<!-- fplot_NPS_Exp&#45;&gt;plotAndSave -->
<g id="edge18" class="edge"><title>fplot_NPS_Exp&#45;&gt;plotAndSave</title>
<path fill="none" stroke="black" d="M782.596,-144.411C774.42,-135.606 764.226,-124.628 755.21,-114.919"/>
<polygon fill="black" stroke="black" points="757.663,-112.416 748.294,-107.47 752.533,-117.179 757.663,-112.416"/>
</g>
<!-- fplot_NPS_ExpAndFit -->
<g id="node22" class="node"><title>fplot_NPS_ExpAndFit</title>
<ellipse fill="none" stroke="black" cx="1302" cy="-162" rx="90.4879" ry="18"/>
<text text-anchor="middle" x="1302" y="-158.3" font-family="Times,serif" font-size="14.00">fplot_NPS_ExpAndFit</text>
</g>
<!-- fplot_NPS_ExpAndFit&#45;&gt;plotAndSave -->
<g id="edge19" class="edge"><title>fplot_NPS_ExpAndFit&#45;&gt;plotAndSave</title>
<path fill="none" stroke="black" d="M1236.61,-149.464C1224.78,-147.528 1212.53,-145.622 1201,-144 1056.18,-123.626 885.275,-105.851 795.427,-96.9875"/>
<polygon fill="black" stroke="black" points="795.7,-93.4976 785.406,-96.0028 795.016,-100.464 795.7,-93.4976"/>
</g>
<!-- fplot_OD -->
<g id="node23" class="node"><title>fplot_OD</title>
<ellipse fill="none" stroke="black" cx="262" cy="-162" rx="44.2946" ry="18"/>
<text text-anchor="middle" x="262" y="-158.3" font-family="Times,serif" font-size="14.00">fplot_OD</text>
</g>
<!-- fplot_OD&#45;&gt;plotAndSave -->
<g id="edge22" class="edge"><title>fplot_OD&#45;&gt;plotAndSave</title>
<path fill="none" stroke="black" d="M294.254,-149.613C301.044,-147.51 308.208,-145.506 315,-144 438.914,-116.517 586.88,-101.942 669.369,-95.4018"/>
<polygon fill="black" stroke="black" points="669.644,-98.891 679.342,-94.6251 669.1,-91.9122 669.644,-98.891"/>
</g>
<!-- fplot_NPS_LineCut -->
<g id="node24" class="node"><title>fplot_NPS_LineCut</title>
<ellipse fill="none" stroke="black" cx="405" cy="-162" rx="81.3646" ry="18"/>
<text text-anchor="middle" x="405" y="-158.3" font-family="Times,serif" font-size="14.00">fplot_NPS_LineCut</text>
</g>
<!-- fplot_NPS_LineCut&#45;&gt;plotAndSave -->
<g id="edge26" class="edge"><title>fplot_NPS_LineCut&#45;&gt;plotAndSave</title>
<path fill="none" stroke="black" d="M461.385,-148.967C521.987,-136.033 617.689,-115.609 677.82,-102.776"/>
<polygon fill="black" stroke="black" points="678.836,-106.138 687.885,-100.628 677.375,-99.2925 678.836,-106.138"/>
</g>
<!-- azmAvgNonSq -->
<g id="node26" class="node"><title>azmAvgNonSq</title>
<ellipse fill="none" stroke="black" cx="261" cy="-378" rx="63.5411" ry="18"/>
<text text-anchor="middle" x="261" y="-374.3" font-family="Times,serif" font-size="14.00">azmAvgNonSq</text>
</g>
<!-- azmAvg_0 -->
<g id="node27" class="node"><title>azmAvg_0</title>
<ellipse fill="none" stroke="black" cx="296" cy="-306" rx="48.1437" ry="18"/>
<text text-anchor="middle" x="296" y="-302.3" font-family="Times,serif" font-size="14.00">azmAvg_0</text>
</g>
<!-- azmAvgNonSq&#45;&gt;azmAvg_0 -->
<g id="edge33" class="edge"><title>azmAvgNonSq&#45;&gt;azmAvg_0</title>
<path fill="none" stroke="black" d="M269.473,-360.055C273.557,-351.887 278.544,-341.912 283.088,-332.824"/>
<polygon fill="black" stroke="black" points="286.264,-334.299 287.605,-323.789 280.003,-331.168 286.264,-334.299"/>
</g>
<!-- azmAvgSq -->
<g id="node28" class="node"><title>azmAvgSq</title>
<ellipse fill="none" stroke="black" cx="391" cy="-378" rx="48.6179" ry="18"/>
<text text-anchor="middle" x="391" y="-374.3" font-family="Times,serif" font-size="14.00">azmAvgSq</text>
</g>
<!-- azmAvgSq&#45;&gt;azmAvg_0 -->
<g id="edge34" class="edge"><title>azmAvgSq&#45;&gt;azmAvg_0</title>
<path fill="none" stroke="black" d="M369.916,-361.465C356.665,-351.7 339.391,-338.972 324.875,-328.276"/>
<polygon fill="black" stroke="black" points="326.825,-325.365 316.698,-322.251 322.672,-331.001 326.825,-325.365"/>
</g>
<!-- OD2AtomNum -->
<g id="node29" class="node"><title>OD2AtomNum</title>
<ellipse fill="none" stroke="black" cx="1793" cy="-234" rx="65.9423" ry="18"/>
<text text-anchor="middle" x="1793" y="-230.3" font-family="Times,serif" font-size="14.00">OD2AtomNum</text>
</g>
<!-- OD2AtomNum&#45;&gt;__calcNPS -->
<g id="edge35" class="edge"><title>OD2AtomNum&#45;&gt;__calcNPS</title>
<path fill="none" stroke="black" d="M1793,-215.697C1793,-207.983 1793,-198.712 1793,-190.112"/>
<polygon fill="black" stroke="black" points="1796.5,-190.104 1793,-180.104 1789.5,-190.104 1796.5,-190.104"/>
</g>
</g>

<g transform="translate(0.000000,17.000000) scale(0.100000,-0.100000)"
fill="#000000" stroke="none">
<path d="M21 157 c-29 -35 -16 -97 20 -97 15 0 19 -5 15 -16 -3 -9 -6 -20 -6
-25 0 -5 -4 -9 -10 -9 -14 0 -12 27 3 33 6 3 2 6 -10 6 -30 1 -31 -35 -3 -44
28 -9 47 9 55 51 3 20 9 42 12 50 3 8 -1 14 -11 14 -9 0 -16 -8 -16 -19 0 -26
-15 -34 -30 -16 -13 16 -6 48 16 70 14 13 13 15 -4 15 -11 0 -25 -6 -31 -13z"/>
<path d="M80 150 c0 -13 5 -20 13 -17 6 2 12 10 12 17 0 7 -6 15 -12 18 -8 2
-13 -5 -13 -18z"/>
<path d="M347 164 c-13 -13 -7 -24 14 -24 11 0 19 5 17 12 -5 14 -22 21 -31
12z"/>
<path d="M103 85 c-9 -40 -8 -45 8 -45 13 0 19 9 21 33 2 24 7 31 21 29 10 -2
17 3 17 13 0 10 -9 15 -28 15 -26 0 -30 -5 -39 -45z"/>
<path d="M175 101 c-24 -48 -13 -59 64 -60 63 -1 69 1 79 25 15 31 15 64 1 64
-6 0 -8 -8 -5 -18 4 -10 -1 -27 -10 -38 -14 -18 -15 -17 -9 19 5 29 3 37 -9
37 -9 0 -18 -13 -22 -35 -3 -19 -10 -35 -14 -35 -4 0 -4 16 0 35 8 35 8 35
-26 35 -27 0 -36 -6 -49 -29z m47 -6 c-5 -28 -22 -44 -22 -21 0 21 11 46 20
46 4 0 5 -11 2 -25z"/>
<path d="M340 116 c0 -7 -3 -28 -6 -45 -6 -26 -3 -31 13 -31 10 0 25 6 32 12
11 10 13 10 7 1 -5 -9 3 -13 28 -13 25 0 36 4 36 15 0 8 -4 15 -10 15 -5 0
-10 -4 -10 -10 0 -5 -5 -10 -11 -10 -6 0 -2 12 9 28 36 51 36 52 -2 52 -25 0
-36 -4 -36 -15 0 -8 5 -15 10 -15 6 0 10 5 10 12 0 6 3 9 6 6 9 -10 -19 -46
-39 -52 -17 -4 -18 -1 -13 30 6 27 4 34 -9 34 -8 0 -15 -6 -15 -14z"/>
<path d="M472 118 c-7 -7 -12 -27 -12 -46 0 -30 2 -33 27 -30 17 2 32 12 39
27 7 13 18 28 26 33 10 8 9 8 -4 4 -12 -3 -18 0 -18 9 0 18 -41 20 -58 3z m29
-51 c-13 -13 -15 11 -4 40 7 16 8 15 11 -6 2 -13 -1 -28 -7 -34z"/>
</g>
</svg>
